<mxfile host="Electron" modified="2023-07-20T01:38:20.969Z" agent="Mozilla/5.0 (Macintosh; Intel Mac OS X 10_15_7) AppleWebKit/537.36 (KHTML, like Gecko) draw.io/21.6.1 Chrome/112.0.5615.204 Electron/24.6.1 Safari/537.36" etag="yCi_YK3RRzi7RmcD_Gab" version="21.6.1" type="device">
  <diagram name="페이지-1" id="aYw8P1uveAzs6AAGEmjh">
    <mxGraphModel dx="1020" dy="723" grid="1" gridSize="10" guides="1" tooltips="1" connect="1" arrows="1" fold="1" page="1" pageScale="1" pageWidth="827" pageHeight="1169" math="0" shadow="0">
      <root>
        <mxCell id="0" />
        <mxCell id="1" parent="0" />
        <mxCell id="ecYhXbiWXZc0T2B9RxaW-4" value="" style="edgeStyle=orthogonalEdgeStyle;rounded=0;orthogonalLoop=1;jettySize=auto;html=1;strokeWidth=2;" edge="1" parent="1" source="ecYhXbiWXZc0T2B9RxaW-2" target="ecYhXbiWXZc0T2B9RxaW-3">
          <mxGeometry relative="1" as="geometry" />
        </mxCell>
        <mxCell id="ecYhXbiWXZc0T2B9RxaW-2" value="File&lt;br style=&quot;font-size: 16px;&quot;&gt;Interceptor" style="rounded=0;whiteSpace=wrap;html=1;fontStyle=1;fontSize=16;strokeWidth=2;" vertex="1" parent="1">
          <mxGeometry x="180" y="400" width="100" height="40" as="geometry" />
        </mxCell>
        <mxCell id="ecYhXbiWXZc0T2B9RxaW-8" style="rounded=0;orthogonalLoop=1;jettySize=auto;html=1;exitX=0.5;exitY=1;exitDx=0;exitDy=0;entryX=1;entryY=0.5;entryDx=0;entryDy=0;strokeWidth=2;" edge="1" parent="1" source="ecYhXbiWXZc0T2B9RxaW-3" target="ecYhXbiWXZc0T2B9RxaW-5">
          <mxGeometry relative="1" as="geometry" />
        </mxCell>
        <mxCell id="ecYhXbiWXZc0T2B9RxaW-12" value="" style="edgeStyle=orthogonalEdgeStyle;rounded=0;orthogonalLoop=1;jettySize=auto;html=1;strokeWidth=2;" edge="1" parent="1" source="ecYhXbiWXZc0T2B9RxaW-3" target="ecYhXbiWXZc0T2B9RxaW-10">
          <mxGeometry relative="1" as="geometry" />
        </mxCell>
        <mxCell id="ecYhXbiWXZc0T2B9RxaW-3" value="Controller" style="rounded=0;whiteSpace=wrap;html=1;fontStyle=1;fontSize=16;strokeWidth=2;" vertex="1" parent="1">
          <mxGeometry x="340" y="400" width="100" height="40" as="geometry" />
        </mxCell>
        <mxCell id="ecYhXbiWXZc0T2B9RxaW-9" style="rounded=0;orthogonalLoop=1;jettySize=auto;html=1;exitX=0;exitY=0.5;exitDx=0;exitDy=0;entryX=0.5;entryY=1;entryDx=0;entryDy=0;strokeWidth=2;" edge="1" parent="1" source="ecYhXbiWXZc0T2B9RxaW-5" target="ecYhXbiWXZc0T2B9RxaW-2">
          <mxGeometry relative="1" as="geometry" />
        </mxCell>
        <mxCell id="ecYhXbiWXZc0T2B9RxaW-5" value="View" style="rounded=0;whiteSpace=wrap;html=1;fontStyle=1;fontSize=16;strokeWidth=2;" vertex="1" parent="1">
          <mxGeometry x="270" y="480" width="80" height="40" as="geometry" />
        </mxCell>
        <mxCell id="ecYhXbiWXZc0T2B9RxaW-13" value="" style="edgeStyle=orthogonalEdgeStyle;rounded=0;orthogonalLoop=1;jettySize=auto;html=1;strokeWidth=2;" edge="1" parent="1" source="ecYhXbiWXZc0T2B9RxaW-10" target="ecYhXbiWXZc0T2B9RxaW-11">
          <mxGeometry relative="1" as="geometry" />
        </mxCell>
        <mxCell id="ecYhXbiWXZc0T2B9RxaW-10" value="Service" style="rounded=0;whiteSpace=wrap;html=1;fontStyle=1;fontSize=16;strokeWidth=2;" vertex="1" parent="1">
          <mxGeometry x="500" y="400" width="100" height="40" as="geometry" />
        </mxCell>
        <mxCell id="ecYhXbiWXZc0T2B9RxaW-11" value="Repository" style="rounded=0;whiteSpace=wrap;html=1;fontStyle=1;fontSize=16;strokeWidth=2;" vertex="1" parent="1">
          <mxGeometry x="660" y="400" width="100" height="40" as="geometry" />
        </mxCell>
        <mxCell id="ecYhXbiWXZc0T2B9RxaW-14" value="" style="shape=curlyBracket;whiteSpace=wrap;html=1;rounded=1;labelPosition=left;verticalLabelPosition=middle;align=right;verticalAlign=middle;direction=south;strokeWidth=2;" vertex="1" parent="1">
          <mxGeometry x="180" y="360" width="580" height="20" as="geometry" />
        </mxCell>
        <mxCell id="ecYhXbiWXZc0T2B9RxaW-15" value="영속성 컨텍스트 생존 범위" style="text;html=1;strokeColor=none;fillColor=none;align=center;verticalAlign=middle;whiteSpace=wrap;rounded=0;fontStyle=1;fontSize=18;" vertex="1" parent="1">
          <mxGeometry x="180" y="330" width="580" height="30" as="geometry" />
        </mxCell>
        <mxCell id="ecYhXbiWXZc0T2B9RxaW-17" value="" style="edgeStyle=orthogonalEdgeStyle;rounded=0;orthogonalLoop=1;jettySize=auto;html=1;strokeWidth=2;" edge="1" parent="1">
          <mxGeometry relative="1" as="geometry">
            <mxPoint x="120" y="419.76" as="sourcePoint" />
            <mxPoint x="180" y="419.76" as="targetPoint" />
          </mxGeometry>
        </mxCell>
        <mxCell id="ecYhXbiWXZc0T2B9RxaW-18" value="Request" style="text;html=1;strokeColor=none;fillColor=none;align=center;verticalAlign=middle;whiteSpace=wrap;rounded=0;fontStyle=1;fontSize=16;" vertex="1" parent="1">
          <mxGeometry x="50" y="405" width="70" height="30" as="geometry" />
        </mxCell>
        <mxCell id="ecYhXbiWXZc0T2B9RxaW-19" value="" style="shape=curlyBracket;whiteSpace=wrap;html=1;rounded=1;flipH=1;labelPosition=right;verticalLabelPosition=middle;align=left;verticalAlign=middle;direction=north;strokeWidth=2;" vertex="1" parent="1">
          <mxGeometry x="180" y="540" width="290" height="20" as="geometry" />
        </mxCell>
        <mxCell id="ecYhXbiWXZc0T2B9RxaW-20" value="영속 상태, 수정 불가능" style="text;html=1;strokeColor=none;fillColor=none;align=center;verticalAlign=middle;whiteSpace=wrap;rounded=0;fontStyle=1;fontSize=18;" vertex="1" parent="1">
          <mxGeometry x="180" y="570" width="290" height="30" as="geometry" />
        </mxCell>
        <mxCell id="ecYhXbiWXZc0T2B9RxaW-21" value="" style="shape=curlyBracket;whiteSpace=wrap;html=1;rounded=1;flipH=1;labelPosition=right;verticalLabelPosition=middle;align=left;verticalAlign=middle;direction=north;strokeWidth=2;" vertex="1" parent="1">
          <mxGeometry x="470" y="540" width="290" height="20" as="geometry" />
        </mxCell>
        <mxCell id="ecYhXbiWXZc0T2B9RxaW-22" value="트랜잭션 범위&lt;br&gt;영속 상태, 수정 가능" style="text;html=1;strokeColor=none;fillColor=none;align=center;verticalAlign=middle;whiteSpace=wrap;rounded=0;fontStyle=1;fontSize=18;" vertex="1" parent="1">
          <mxGeometry x="470" y="570" width="290" height="30" as="geometry" />
        </mxCell>
      </root>
    </mxGraphModel>
  </diagram>
</mxfile>
